<?xml version="1.0" encoding="iso-8859-1"?>
<!-- Uploaded to: SVG Repo, www.svgrepo.com, Generator: SVG Repo Mixer Tools -->
<svg height="800px" width="800px" version="1.1" id="Layer_1" xmlns="http://www.w3.org/2000/svg" xmlns:xlink="http://www.w3.org/1999/xlink" 
	 viewBox="0 0 512 512" xml:space="preserve">
<path style="fill:#414D53;" d="M288.681,179.745c0-8.987-7.353-16.34-16.34-16.34H256l-10.894,54.468h43.574V179.745z"/>
<path style="fill:#57676E;" d="M239.66,163.404c-8.987,0-16.34,7.353-16.34,16.34v38.128H256v-54.468H239.66z"/>
<path style="fill:#748993;" d="M389.447,196.085v228.766c63.172,0,114.383-51.211,114.383-114.383S452.619,196.085,389.447,196.085z
	"/>
<path style="fill:#A2B1B7;" d="M471.149,310.468c0-63.172-36.58-114.383-81.702-114.383H122.553
	c-63.172,0-114.383,51.211-114.383,114.383s51.211,114.383,114.383,114.383c41.202,0,77.311-21.788,97.447-54.468h72
	c20.136,32.68,56.245,54.468,97.447,54.468C434.569,424.851,471.149,373.64,471.149,310.468z"/>
<polygon style="fill:#E0315B;" points="155.234,294.128 144.34,310.468 155.234,326.809 187.915,326.809 187.915,294.128 "/>
<polygon style="fill:#EA5A7D;" points="138.894,294.128 138.894,245.106 106.213,245.106 106.213,294.128 57.191,294.128 
	57.191,326.809 106.213,326.809 106.213,375.83 138.894,375.83 138.894,326.809 155.234,326.809 155.234,294.128 "/>
<g>
	<circle style="fill:#FEEB5C;" cx="389.447" cy="359.489" r="16.34"/>
	<circle style="fill:#FEEB5C;" cx="389.447" cy="261.447" r="16.34"/>
	<circle style="fill:#FEEB5C;" cx="340.426" cy="310.468" r="16.34"/>
	<circle style="fill:#FEEB5C;" cx="438.468" cy="310.468" r="16.34"/>
</g>
<path d="M389.447,187.915h-92.596v-8.17c0-13.515-10.995-24.511-24.511-24.511h-8.17V119.83c0-13.515,10.995-24.511,24.511-24.511
	h138.894c4.512,0,8.17-3.657,8.17-8.17s-3.658-8.17-8.17-8.17H288.681c-22.526,0-40.851,18.325-40.851,40.851v35.404h-8.17
	c-13.516,0-24.511,10.996-24.511,24.511v8.17h-92.596C54.977,187.915,0,242.893,0,310.468s54.977,122.553,122.553,122.553
	c41.319,0,79.077-20.272,101.911-54.468h63.072c22.833,34.196,60.591,54.468,101.911,54.468
	c67.576,0,122.553-54.978,122.553-122.553S457.023,187.915,389.447,187.915z M231.489,179.745c0-4.506,3.665-8.17,8.17-8.17h32.681
	c4.506,0,8.17,3.665,8.17,8.17v8.17h-49.021V179.745z M389.447,416.681c-37.146,0-70.974-18.909-90.491-50.585
	c-1.488-2.414-4.12-3.884-6.956-3.884h-72c-2.836,0-5.469,1.471-6.956,3.884c-19.517,31.675-53.345,50.585-90.491,50.585
	c-58.566,0-106.213-47.647-106.213-106.213s47.646-106.213,106.213-106.213h266.894c58.566,0,106.213,47.647,106.213,106.213
	S448.013,416.681,389.447,416.681z"/>
<path d="M187.915,285.957h-40.851v-40.851c0-4.513-3.658-8.17-8.17-8.17h-32.681c-4.512,0-8.17,3.657-8.17,8.17v40.851H57.191
	c-4.512,0-8.17,3.657-8.17,8.17v32.681c0,4.513,3.658,8.17,8.17,8.17h40.851v40.851c0,4.513,3.658,8.17,8.17,8.17h32.681
	c4.512,0,8.17-3.657,8.17-8.17v-40.851h40.851c4.512,0,8.17-3.657,8.17-8.17v-32.681
	C196.085,289.614,192.427,285.957,187.915,285.957z M179.745,318.638h-40.851c-4.512,0-8.17,3.657-8.17,8.17v40.851h-16.34v-40.851
	c0-4.513-3.658-8.17-8.17-8.17H65.362v-16.34h40.851c4.512,0,8.17-3.657,8.17-8.17v-40.851h16.34v40.851
	c0,4.513,3.658,8.17,8.17,8.17h40.851V318.638z"/>
<path d="M264.17,302.298h-16.34c-4.512,0-8.17,3.657-8.17,8.17c0,4.513,3.658,8.17,8.17,8.17h16.34c4.512,0,8.17-3.657,8.17-8.17
	C272.34,305.955,268.682,302.298,264.17,302.298z"/>
<path d="M389.447,334.979c-13.516,0-24.511,10.996-24.511,24.511S375.931,384,389.447,384c13.516,0,24.511-10.996,24.511-24.511
	S402.963,334.979,389.447,334.979z M389.447,367.66c-4.506,0-8.17-3.665-8.17-8.17s3.665-8.17,8.17-8.17s8.17,3.665,8.17,8.17
	S393.952,367.66,389.447,367.66z"/>
<path d="M389.447,285.957c13.516,0,24.511-10.996,24.511-24.511c0-13.515-10.995-24.511-24.511-24.511
	c-13.516,0-24.511,10.996-24.511,24.511C364.936,274.961,375.931,285.957,389.447,285.957z M389.447,253.277
	c4.506,0,8.17,3.665,8.17,8.17c0,4.506-3.665,8.17-8.17,8.17s-8.17-3.665-8.17-8.17
	C381.277,256.941,384.941,253.277,389.447,253.277z"/>
<path d="M340.426,285.957c-13.516,0-24.511,10.996-24.511,24.511s10.995,24.511,24.511,24.511c13.516,0,24.511-10.996,24.511-24.511
	S353.941,285.957,340.426,285.957z M340.426,318.638c-4.506,0-8.17-3.665-8.17-8.17s3.665-8.17,8.17-8.17s8.17,3.665,8.17,8.17
	S344.931,318.638,340.426,318.638z"/>
<path d="M438.468,285.957c-13.516,0-24.511,10.996-24.511,24.511s10.995,24.511,24.511,24.511s24.511-10.996,24.511-24.511
	S451.984,285.957,438.468,285.957z M438.468,318.638c-4.506,0-8.17-3.665-8.17-8.17s3.665-8.17,8.17-8.17s8.17,3.665,8.17,8.17
	S442.974,318.638,438.468,318.638z"/>
</svg>