<?xml version="1.0" encoding="utf-8"?>
<!-- Uploaded to: SVG Repo, www.svgrepo.com, Generator: SVG Repo Mixer Tools -->
<svg width="800px" height="800px" viewBox="0 -9.21 110.516 110.516" xmlns="http://www.w3.org/2000/svg">
  <g id="Group_1125" data-name="Group 1125" transform="translate(-2153.77 -14082.95)">
    <path id="Path_830" data-name="Path 830" d="M-2925.169,2272.452h-30.8l-1.041,23.1h-26.226v23.527l36.8-.54,12.519,6.153,1.619-6.153,8.2-.97-1.079-45.113" transform="translate(5186 11845)" fill="#946fa9" fill-rule="evenodd"/>
    <path id="Path_831" data-name="Path 831" d="M-3030.071,2239.967v54.826l9.065.43.718,12.375,20.579-11.223,43.744-.865v-54.825s-73.53-.718-74.106-.718" transform="translate(5186 11845)" fill="#d858a3" fill-rule="evenodd"/>
    <path id="Path_832" data-name="Path 832" d="M-2978.5,2257.794l-4.574-3.652-4.439-.344-5.591,2.668-1.1-.763-4.067-1.9-3.8.216-5,2.924-1.482,4.655.429,4.488,4.735,6.981,4.489,4.911,6.182,4.1,3.3-2.712,8.007-7.066,3.932-9.146-1.018-5.36" transform="translate(5186 11845)" fill="#f6f6f5" fill-rule="evenodd"/>
    <path id="Path_833" data-name="Path 833" d="M-2926.319,2316.236h-9.211v5.875l-9.226-5.271-1.063-.6h-35.758v-18.422h25.326a2.3,2.3,0,0,0,2.3-2.3v-20.722h27.629Zm-73.031-23.029-1.039.581-18.028,10.016v-10.6h-9.21v-50.65h69.072v50.65h-40.8Zm75.331-23.021h-29.929v-29.929a2.3,2.3,0,0,0-2.3-2.307h-73.676a2.3,2.3,0,0,0-2.3,2.307v55.258a2.3,2.3,0,0,0,2.3,2.3h6.907v13.815l24.864-13.815h11.973v20.721a2.3,2.3,0,0,0,2.3,2.3h36.839l16.115,9.214v-9.214h6.906a2.3,2.3,0,0,0,2.3-2.3v-46.049a2.3,2.3,0,0,0-2.3-2.3" transform="translate(5186 11845)" fill="#070505" fill-rule="evenodd"/>
    <path id="Path_834" data-name="Path 834" d="M-2981.4,2268.769a32.144,32.144,0,0,1-5.477,6.357,56.369,56.369,0,0,1-6.212,4.928,55.882,55.882,0,0,1-6.1-4.823,32.442,32.442,0,0,1-5.551-6.4,12.1,12.1,0,0,1-2.167-6.32,6.147,6.147,0,0,1,6.142-6.139,6.093,6.093,0,0,1,4.385,1.841l3.289,3.36,3.291-3.36a6.1,6.1,0,0,1,4.385-1.841,6.143,6.143,0,0,1,6.138,6.139A12.053,12.053,0,0,1-2981.4,2268.769Zm-4.013-17.005a10.714,10.714,0,0,0-7.676,3.228,10.714,10.714,0,0,0-7.674-3.228,10.748,10.748,0,0,0-10.744,10.746c0,12.283,18.418,23.024,18.418,23.024s18.421-10.741,18.421-23.024a10.746,10.746,0,0,0-10.745-10.746" transform="translate(5186 11845)" fill="#070505" fill-rule="evenodd"/>
  </g>
</svg>